<?xml version="1.0" encoding="UTF-8" standalone="no"?>
<!DOCTYPE svg PUBLIC "-//W3C//DTD SVG 1.1//EN"
 "http://www.w3.org/Graphics/SVG/1.1/DTD/svg11.dtd">
<!-- Generated by graphviz version 2.49.3 (0)
 -->
<!-- Title: snakemake_dag Pages: 1 -->
<svg width="1151pt" height="548pt"
 viewBox="0.00 0.00 1150.50 548.00" xmlns="http://www.w3.org/2000/svg" xmlns:xlink="http://www.w3.org/1999/xlink">
<g id="graph0" class="graph" transform="scale(1 1) rotate(0) translate(4 544)">
<title>snakemake_dag</title>
<polygon fill="white" stroke="transparent" points="-4,4 -4,-544 1146.5,-544 1146.5,4 -4,4"/>
<!-- 0 -->
<g id="node1" class="node">
<title>0</title>
<path fill="none" stroke="#d89556" stroke-width="2" d="M603,-36C603,-36 573,-36 573,-36 567,-36 561,-30 561,-24 561,-24 561,-12 561,-12 561,-6 567,0 573,0 573,0 603,0 603,0 609,0 615,-6 615,-12 615,-12 615,-24 615,-24 615,-30 609,-36 603,-36"/>
<text text-anchor="middle" x="588" y="-15.5" font-family="sans" font-size="10.00">all</text>
</g>
<!-- 1 -->
<g id="node2" class="node">
<title>1</title>
<path fill="none" stroke="#569ad8" stroke-width="2" d="M612,-108C612,-108 564,-108 564,-108 558,-108 552,-102 552,-96 552,-96 552,-84 552,-84 552,-78 558,-72 564,-72 564,-72 612,-72 612,-72 618,-72 624,-78 624,-84 624,-84 624,-96 624,-96 624,-102 618,-108 612,-108"/>
<text text-anchor="middle" x="588" y="-87.5" font-family="sans" font-size="10.00">cluster_cells</text>
</g>
<!-- 1&#45;&gt;0 -->
<g id="edge1" class="edge">
<title>1&#45;&gt;0</title>
<path fill="none" stroke="grey" stroke-width="2" d="M588,-71.7C588,-63.98 588,-54.71 588,-46.11"/>
<polygon fill="grey" stroke="grey" stroke-width="2" points="591.5,-46.1 588,-36.1 584.5,-46.1 591.5,-46.1"/>
</g>
<!-- 2 -->
<g id="node3" class="node">
<title>2</title>
<path fill="none" stroke="#97d856" stroke-width="2" d="M606.5,-180C606.5,-180 569.5,-180 569.5,-180 563.5,-180 557.5,-174 557.5,-168 557.5,-168 557.5,-156 557.5,-156 557.5,-150 563.5,-144 569.5,-144 569.5,-144 606.5,-144 606.5,-144 612.5,-144 618.5,-150 618.5,-156 618.5,-156 618.5,-168 618.5,-168 618.5,-174 612.5,-180 606.5,-180"/>
<text text-anchor="middle" x="588" y="-159.5" font-family="sans" font-size="10.00">filter_cells</text>
</g>
<!-- 2&#45;&gt;1 -->
<g id="edge2" class="edge">
<title>2&#45;&gt;1</title>
<path fill="none" stroke="grey" stroke-width="2" d="M588,-143.7C588,-135.98 588,-126.71 588,-118.11"/>
<polygon fill="grey" stroke="grey" stroke-width="2" points="591.5,-118.1 588,-108.1 584.5,-118.1 591.5,-118.1"/>
</g>
<!-- 3 -->
<g id="node4" class="node">
<title>3</title>
<path fill="none" stroke="#d6d856" stroke-width="2" d="M628,-252C628,-252 548,-252 548,-252 542,-252 536,-246 536,-240 536,-240 536,-228 536,-228 536,-222 542,-216 548,-216 548,-216 628,-216 628,-216 634,-216 640,-222 640,-228 640,-228 640,-240 640,-240 640,-246 634,-252 628,-252"/>
<text text-anchor="middle" x="588" y="-231.5" font-family="sans" font-size="10.00">aggregate_samples</text>
</g>
<!-- 3&#45;&gt;2 -->
<g id="edge3" class="edge">
<title>3&#45;&gt;2</title>
<path fill="none" stroke="grey" stroke-width="2" d="M588,-215.7C588,-207.98 588,-198.71 588,-190.11"/>
<polygon fill="grey" stroke="grey" stroke-width="2" points="591.5,-190.1 588,-180.1 584.5,-190.1 591.5,-190.1"/>
</g>
<!-- 4 -->
<g id="node5" class="node">
<title>4</title>
<path fill="none" stroke="#56d89a" stroke-width="2" d="M164.5,-324C164.5,-324 79.5,-324 79.5,-324 73.5,-324 67.5,-318 67.5,-312 67.5,-312 67.5,-300 67.5,-300 67.5,-294 73.5,-288 79.5,-288 79.5,-288 164.5,-288 164.5,-288 170.5,-288 176.5,-294 176.5,-300 176.5,-300 176.5,-312 176.5,-312 176.5,-318 170.5,-324 164.5,-324"/>
<text text-anchor="middle" x="122" y="-303.5" font-family="sans" font-size="10.00">extract_sample_data</text>
</g>
<!-- 4&#45;&gt;3 -->
<g id="edge4" class="edge">
<title>4&#45;&gt;3</title>
<path fill="none" stroke="grey" stroke-width="2" d="M176.78,-293.55C186.81,-291.59 197.21,-289.66 207,-288 318.78,-269.06 449.86,-251.94 525.48,-242.54"/>
<polygon fill="grey" stroke="grey" stroke-width="2" points="526.28,-245.97 535.78,-241.27 525.42,-239.02 526.28,-245.97"/>
</g>
<!-- 5 -->
<g id="node6" class="node">
<title>5</title>
<path fill="none" stroke="#59d856" stroke-width="2" d="M142,-396C142,-396 12,-396 12,-396 6,-396 0,-390 0,-384 0,-384 0,-372 0,-372 0,-366 6,-360 12,-360 12,-360 142,-360 142,-360 148,-360 154,-366 154,-372 154,-372 154,-384 154,-384 154,-390 148,-396 142,-396"/>
<text text-anchor="middle" x="77" y="-381" font-family="sans" font-size="10.00">move_sample_files</text>
<text text-anchor="middle" x="77" y="-370" font-family="sans" font-size="10.00">sample: GSM3937767_PMEL1</text>
</g>
<!-- 5&#45;&gt;4 -->
<g id="edge11" class="edge">
<title>5&#45;&gt;4</title>
<path fill="none" stroke="grey" stroke-width="2" d="M88.12,-359.7C93.36,-351.56 99.7,-341.69 105.48,-332.7"/>
<polygon fill="grey" stroke="grey" stroke-width="2" points="108.54,-334.41 111,-324.1 102.65,-330.62 108.54,-334.41"/>
</g>
<!-- 6 -->
<g id="node7" class="node">
<title>6</title>
<path fill="none" stroke="#56d8d8" stroke-width="2" d="M623.5,-468C623.5,-468 552.5,-468 552.5,-468 546.5,-468 540.5,-462 540.5,-456 540.5,-456 540.5,-444 540.5,-444 540.5,-438 546.5,-432 552.5,-432 552.5,-432 623.5,-432 623.5,-432 629.5,-432 635.5,-438 635.5,-444 635.5,-444 635.5,-456 635.5,-456 635.5,-462 629.5,-468 623.5,-468"/>
<text text-anchor="middle" x="588" y="-447.5" font-family="sans" font-size="10.00">extract_data_files</text>
</g>
<!-- 6&#45;&gt;5 -->
<g id="edge12" class="edge">
<title>6&#45;&gt;5</title>
<path fill="none" stroke="grey" stroke-width="2" d="M540.36,-444.18C463.44,-436.14 306.92,-418.79 164.53,-396.19"/>
<polygon fill="grey" stroke="grey" stroke-width="2" points="164.74,-392.68 154.31,-394.55 163.63,-399.59 164.74,-392.68"/>
</g>
<!-- 9 -->
<g id="node10" class="node">
<title>9</title>
<path fill="none" stroke="#59d856" stroke-width="2" d="M314,-396C314,-396 184,-396 184,-396 178,-396 172,-390 172,-384 172,-384 172,-372 172,-372 172,-366 178,-360 184,-360 184,-360 314,-360 314,-360 320,-360 326,-366 326,-372 326,-372 326,-384 326,-384 326,-390 320,-396 314,-396"/>
<text text-anchor="middle" x="249" y="-381" font-family="sans" font-size="10.00">move_sample_files</text>
<text text-anchor="middle" x="249" y="-370" font-family="sans" font-size="10.00">sample: GSM3937768_PMEL2</text>
</g>
<!-- 6&#45;&gt;9 -->
<g id="edge15" class="edge">
<title>6&#45;&gt;9</title>
<path fill="none" stroke="grey" stroke-width="2" d="M540.15,-439.12C487.29,-428.2 401.06,-410.4 336.14,-396.99"/>
<polygon fill="grey" stroke="grey" stroke-width="2" points="336.82,-393.56 326.32,-394.96 335.4,-400.41 336.82,-393.56"/>
</g>
<!-- 11 -->
<g id="node12" class="node">
<title>11</title>
<path fill="none" stroke="#59d856" stroke-width="2" d="M486,-396C486,-396 356,-396 356,-396 350,-396 344,-390 344,-384 344,-384 344,-372 344,-372 344,-366 350,-360 356,-360 356,-360 486,-360 486,-360 492,-360 498,-366 498,-372 498,-372 498,-384 498,-384 498,-390 492,-396 486,-396"/>
<text text-anchor="middle" x="421" y="-381" font-family="sans" font-size="10.00">move_sample_files</text>
<text text-anchor="middle" x="421" y="-370" font-family="sans" font-size="10.00">sample: GSM3937769_PMEL3</text>
</g>
<!-- 6&#45;&gt;11 -->
<g id="edge17" class="edge">
<title>6&#45;&gt;11</title>
<path fill="none" stroke="grey" stroke-width="2" d="M547.15,-431.88C524.22,-422.26 495.42,-410.19 471.13,-400.01"/>
<polygon fill="grey" stroke="grey" stroke-width="2" points="472.3,-396.71 461.72,-396.07 469.59,-403.16 472.3,-396.71"/>
</g>
<!-- 13 -->
<g id="node14" class="node">
<title>13</title>
<path fill="none" stroke="#59d856" stroke-width="2" d="M647.5,-396C647.5,-396 528.5,-396 528.5,-396 522.5,-396 516.5,-390 516.5,-384 516.5,-384 516.5,-372 516.5,-372 516.5,-366 522.5,-360 528.5,-360 528.5,-360 647.5,-360 647.5,-360 653.5,-360 659.5,-366 659.5,-372 659.5,-372 659.5,-384 659.5,-384 659.5,-390 653.5,-396 647.5,-396"/>
<text text-anchor="middle" x="588" y="-381" font-family="sans" font-size="10.00">move_sample_files</text>
<text text-anchor="middle" x="588" y="-370" font-family="sans" font-size="10.00">sample: GSM3937770_WT1</text>
</g>
<!-- 6&#45;&gt;13 -->
<g id="edge19" class="edge">
<title>6&#45;&gt;13</title>
<path fill="none" stroke="grey" stroke-width="2" d="M588,-431.7C588,-423.98 588,-414.71 588,-406.11"/>
<polygon fill="grey" stroke="grey" stroke-width="2" points="591.5,-406.1 588,-396.1 584.5,-406.1 591.5,-406.1"/>
</g>
<!-- 15 -->
<g id="node16" class="node">
<title>15</title>
<path fill="none" stroke="#59d856" stroke-width="2" d="M808.5,-396C808.5,-396 689.5,-396 689.5,-396 683.5,-396 677.5,-390 677.5,-384 677.5,-384 677.5,-372 677.5,-372 677.5,-366 683.5,-360 689.5,-360 689.5,-360 808.5,-360 808.5,-360 814.5,-360 820.5,-366 820.5,-372 820.5,-372 820.5,-384 820.5,-384 820.5,-390 814.5,-396 808.5,-396"/>
<text text-anchor="middle" x="749" y="-381" font-family="sans" font-size="10.00">move_sample_files</text>
<text text-anchor="middle" x="749" y="-370" font-family="sans" font-size="10.00">sample: GSM3937771_WT2</text>
</g>
<!-- 6&#45;&gt;15 -->
<g id="edge21" class="edge">
<title>6&#45;&gt;15</title>
<path fill="none" stroke="grey" stroke-width="2" d="M627.39,-431.88C649.39,-422.31 677.01,-410.3 700.36,-400.15"/>
<polygon fill="grey" stroke="grey" stroke-width="2" points="701.97,-403.27 709.74,-396.07 699.18,-396.85 701.97,-403.27"/>
</g>
<!-- 17 -->
<g id="node18" class="node">
<title>17</title>
<path fill="none" stroke="#59d856" stroke-width="2" d="M969.5,-396C969.5,-396 850.5,-396 850.5,-396 844.5,-396 838.5,-390 838.5,-384 838.5,-384 838.5,-372 838.5,-372 838.5,-366 844.5,-360 850.5,-360 850.5,-360 969.5,-360 969.5,-360 975.5,-360 981.5,-366 981.5,-372 981.5,-372 981.5,-384 981.5,-384 981.5,-390 975.5,-396 969.5,-396"/>
<text text-anchor="middle" x="910" y="-381" font-family="sans" font-size="10.00">move_sample_files</text>
<text text-anchor="middle" x="910" y="-370" font-family="sans" font-size="10.00">sample: GSM3937772_WT3</text>
</g>
<!-- 6&#45;&gt;17 -->
<g id="edge23" class="edge">
<title>6&#45;&gt;17</title>
<path fill="none" stroke="grey" stroke-width="2" d="M635.51,-438.67C686.22,-427.65 767.49,-409.98 828.46,-396.73"/>
<polygon fill="grey" stroke="grey" stroke-width="2" points="829.42,-400.1 838.45,-394.55 827.94,-393.26 829.42,-400.1"/>
</g>
<!-- 19 -->
<g id="node20" class="node">
<title>19</title>
<path fill="none" stroke="#59d856" stroke-width="2" d="M1130.5,-396C1130.5,-396 1011.5,-396 1011.5,-396 1005.5,-396 999.5,-390 999.5,-384 999.5,-384 999.5,-372 999.5,-372 999.5,-366 1005.5,-360 1011.5,-360 1011.5,-360 1130.5,-360 1130.5,-360 1136.5,-360 1142.5,-366 1142.5,-372 1142.5,-372 1142.5,-384 1142.5,-384 1142.5,-390 1136.5,-396 1130.5,-396"/>
<text text-anchor="middle" x="1071" y="-381" font-family="sans" font-size="10.00">move_sample_files</text>
<text text-anchor="middle" x="1071" y="-370" font-family="sans" font-size="10.00">sample: GSM3937773_WT4</text>
</g>
<!-- 6&#45;&gt;19 -->
<g id="edge25" class="edge">
<title>6&#45;&gt;19</title>
<path fill="none" stroke="grey" stroke-width="2" d="M635.52,-443.92C709.08,-435.79 855.13,-418.62 989.04,-396.09"/>
<polygon fill="grey" stroke="grey" stroke-width="2" points="989.79,-399.52 999.07,-394.39 988.62,-392.61 989.79,-399.52"/>
</g>
<!-- 7 -->
<g id="node8" class="node">
<title>7</title>
<path fill="none" stroke="#d85656" stroke-width="2" d="M613.5,-540C613.5,-540 562.5,-540 562.5,-540 556.5,-540 550.5,-534 550.5,-528 550.5,-528 550.5,-516 550.5,-516 550.5,-510 556.5,-504 562.5,-504 562.5,-504 613.5,-504 613.5,-504 619.5,-504 625.5,-510 625.5,-516 625.5,-516 625.5,-528 625.5,-528 625.5,-534 619.5,-540 613.5,-540"/>
<text text-anchor="middle" x="588" y="-519.5" font-family="sans" font-size="10.00">retrieve_data</text>
</g>
<!-- 7&#45;&gt;6 -->
<g id="edge13" class="edge">
<title>7&#45;&gt;6</title>
<path fill="none" stroke="grey" stroke-width="2" d="M588,-503.7C588,-495.98 588,-486.71 588,-478.11"/>
<polygon fill="grey" stroke="grey" stroke-width="2" points="591.5,-478.1 588,-468.1 584.5,-478.1 591.5,-478.1"/>
</g>
<!-- 8 -->
<g id="node9" class="node">
<title>8</title>
<path fill="none" stroke="#56d89a" stroke-width="2" d="M313.5,-324C313.5,-324 228.5,-324 228.5,-324 222.5,-324 216.5,-318 216.5,-312 216.5,-312 216.5,-300 216.5,-300 216.5,-294 222.5,-288 228.5,-288 228.5,-288 313.5,-288 313.5,-288 319.5,-288 325.5,-294 325.5,-300 325.5,-300 325.5,-312 325.5,-312 325.5,-318 319.5,-324 313.5,-324"/>
<text text-anchor="middle" x="271" y="-303.5" font-family="sans" font-size="10.00">extract_sample_data</text>
</g>
<!-- 8&#45;&gt;3 -->
<g id="edge5" class="edge">
<title>8&#45;&gt;3</title>
<path fill="none" stroke="grey" stroke-width="2" d="M325.86,-292.89C381.64,-280.57 467.92,-261.52 526.11,-248.67"/>
<polygon fill="grey" stroke="grey" stroke-width="2" points="526.91,-252.07 535.92,-246.5 525.4,-245.24 526.91,-252.07"/>
</g>
<!-- 9&#45;&gt;8 -->
<g id="edge14" class="edge">
<title>9&#45;&gt;8</title>
<path fill="none" stroke="grey" stroke-width="2" d="M254.44,-359.7C256.89,-351.9 259.84,-342.51 262.57,-333.83"/>
<polygon fill="grey" stroke="grey" stroke-width="2" points="265.96,-334.69 265.62,-324.1 259.29,-332.59 265.96,-334.69"/>
</g>
<!-- 10 -->
<g id="node11" class="node">
<title>10</title>
<path fill="none" stroke="#56d89a" stroke-width="2" d="M483.5,-324C483.5,-324 398.5,-324 398.5,-324 392.5,-324 386.5,-318 386.5,-312 386.5,-312 386.5,-300 386.5,-300 386.5,-294 392.5,-288 398.5,-288 398.5,-288 483.5,-288 483.5,-288 489.5,-288 495.5,-294 495.5,-300 495.5,-300 495.5,-312 495.5,-312 495.5,-318 489.5,-324 483.5,-324"/>
<text text-anchor="middle" x="441" y="-303.5" font-family="sans" font-size="10.00">extract_sample_data</text>
</g>
<!-- 10&#45;&gt;3 -->
<g id="edge6" class="edge">
<title>10&#45;&gt;3</title>
<path fill="none" stroke="grey" stroke-width="2" d="M476.96,-287.88C496.88,-278.39 521.82,-266.51 543.02,-256.42"/>
<polygon fill="grey" stroke="grey" stroke-width="2" points="544.63,-259.53 552.16,-252.07 541.62,-253.21 544.63,-259.53"/>
</g>
<!-- 11&#45;&gt;10 -->
<g id="edge16" class="edge">
<title>11&#45;&gt;10</title>
<path fill="none" stroke="grey" stroke-width="2" d="M425.94,-359.7C428.17,-351.9 430.85,-342.51 433.33,-333.83"/>
<polygon fill="grey" stroke="grey" stroke-width="2" points="436.73,-334.68 436.11,-324.1 430,-332.76 436.73,-334.68"/>
</g>
<!-- 12 -->
<g id="node13" class="node">
<title>12</title>
<path fill="none" stroke="#56d89a" stroke-width="2" d="M630.5,-324C630.5,-324 545.5,-324 545.5,-324 539.5,-324 533.5,-318 533.5,-312 533.5,-312 533.5,-300 533.5,-300 533.5,-294 539.5,-288 545.5,-288 545.5,-288 630.5,-288 630.5,-288 636.5,-288 642.5,-294 642.5,-300 642.5,-300 642.5,-312 642.5,-312 642.5,-318 636.5,-324 630.5,-324"/>
<text text-anchor="middle" x="588" y="-303.5" font-family="sans" font-size="10.00">extract_sample_data</text>
</g>
<!-- 12&#45;&gt;3 -->
<g id="edge7" class="edge">
<title>12&#45;&gt;3</title>
<path fill="none" stroke="grey" stroke-width="2" d="M588,-287.7C588,-279.98 588,-270.71 588,-262.11"/>
<polygon fill="grey" stroke="grey" stroke-width="2" points="591.5,-262.1 588,-252.1 584.5,-262.1 591.5,-262.1"/>
</g>
<!-- 13&#45;&gt;12 -->
<g id="edge18" class="edge">
<title>13&#45;&gt;12</title>
<path fill="none" stroke="grey" stroke-width="2" d="M588,-359.7C588,-351.98 588,-342.71 588,-334.11"/>
<polygon fill="grey" stroke="grey" stroke-width="2" points="591.5,-334.1 588,-324.1 584.5,-334.1 591.5,-334.1"/>
</g>
<!-- 14 -->
<g id="node15" class="node">
<title>14</title>
<path fill="none" stroke="#56d89a" stroke-width="2" d="M774.5,-324C774.5,-324 689.5,-324 689.5,-324 683.5,-324 677.5,-318 677.5,-312 677.5,-312 677.5,-300 677.5,-300 677.5,-294 683.5,-288 689.5,-288 689.5,-288 774.5,-288 774.5,-288 780.5,-288 786.5,-294 786.5,-300 786.5,-300 786.5,-312 786.5,-312 786.5,-318 780.5,-324 774.5,-324"/>
<text text-anchor="middle" x="732" y="-303.5" font-family="sans" font-size="10.00">extract_sample_data</text>
</g>
<!-- 14&#45;&gt;3 -->
<g id="edge8" class="edge">
<title>14&#45;&gt;3</title>
<path fill="none" stroke="grey" stroke-width="2" d="M696.77,-287.88C677.42,-278.47 653.23,-266.71 632.57,-256.67"/>
<polygon fill="grey" stroke="grey" stroke-width="2" points="633.89,-253.41 623.36,-252.19 630.83,-259.71 633.89,-253.41"/>
</g>
<!-- 15&#45;&gt;14 -->
<g id="edge20" class="edge">
<title>15&#45;&gt;14</title>
<path fill="none" stroke="grey" stroke-width="2" d="M744.8,-359.7C742.9,-351.9 740.62,-342.51 738.52,-333.83"/>
<polygon fill="grey" stroke="grey" stroke-width="2" points="741.92,-333 736.15,-324.1 735.11,-334.65 741.92,-333"/>
</g>
<!-- 16 -->
<g id="node17" class="node">
<title>16</title>
<path fill="none" stroke="#56d89a" stroke-width="2" d="M926.5,-324C926.5,-324 841.5,-324 841.5,-324 835.5,-324 829.5,-318 829.5,-312 829.5,-312 829.5,-300 829.5,-300 829.5,-294 835.5,-288 841.5,-288 841.5,-288 926.5,-288 926.5,-288 932.5,-288 938.5,-294 938.5,-300 938.5,-300 938.5,-312 938.5,-312 938.5,-318 932.5,-324 926.5,-324"/>
<text text-anchor="middle" x="884" y="-303.5" font-family="sans" font-size="10.00">extract_sample_data</text>
</g>
<!-- 16&#45;&gt;3 -->
<g id="edge9" class="edge">
<title>16&#45;&gt;3</title>
<path fill="none" stroke="grey" stroke-width="2" d="M829.36,-292.08C778.68,-280.09 703.29,-262.26 650.29,-249.73"/>
<polygon fill="grey" stroke="grey" stroke-width="2" points="650.87,-246.27 640.33,-247.38 649.26,-253.08 650.87,-246.27"/>
</g>
<!-- 17&#45;&gt;16 -->
<g id="edge22" class="edge">
<title>17&#45;&gt;16</title>
<path fill="none" stroke="grey" stroke-width="2" d="M903.57,-359.7C900.64,-351.81 897.11,-342.3 893.86,-333.55"/>
<polygon fill="grey" stroke="grey" stroke-width="2" points="897.12,-332.26 890.35,-324.1 890.55,-334.7 897.12,-332.26"/>
</g>
<!-- 18 -->
<g id="node19" class="node">
<title>18</title>
<path fill="none" stroke="#56d89a" stroke-width="2" d="M1083.5,-324C1083.5,-324 998.5,-324 998.5,-324 992.5,-324 986.5,-318 986.5,-312 986.5,-312 986.5,-300 986.5,-300 986.5,-294 992.5,-288 998.5,-288 998.5,-288 1083.5,-288 1083.5,-288 1089.5,-288 1095.5,-294 1095.5,-300 1095.5,-300 1095.5,-312 1095.5,-312 1095.5,-318 1089.5,-324 1083.5,-324"/>
<text text-anchor="middle" x="1041" y="-303.5" font-family="sans" font-size="10.00">extract_sample_data</text>
</g>
<!-- 18&#45;&gt;3 -->
<g id="edge10" class="edge">
<title>18&#45;&gt;3</title>
<path fill="none" stroke="grey" stroke-width="2" d="M986.38,-294.81C973.48,-292.49 959.76,-290.1 947,-288 843.16,-270.95 721.99,-253.59 650.31,-243.58"/>
<polygon fill="grey" stroke="grey" stroke-width="2" points="650.49,-240.07 640.1,-242.15 649.52,-247 650.49,-240.07"/>
</g>
<!-- 19&#45;&gt;18 -->
<g id="edge24" class="edge">
<title>19&#45;&gt;18</title>
<path fill="none" stroke="grey" stroke-width="2" d="M1063.58,-359.7C1060.21,-351.81 1056.13,-342.3 1052.38,-333.55"/>
<polygon fill="grey" stroke="grey" stroke-width="2" points="1055.49,-331.92 1048.33,-324.1 1049.05,-334.67 1055.49,-331.92"/>
</g>
</g>
</svg>
